<svg version="1.1" viewBox="0.0 0.0 721.8267716535433 242.11548556430446" fill="none" stroke="none" stroke-linecap="square" stroke-miterlimit="10" xmlns:xlink="http://www.w3.org/1999/xlink" xmlns="http://www.w3.org/2000/svg"><clipPath id="p.0"><path d="m0 0l721.8268 0l0 242.11548l-721.8268 0l0 -242.11548z" clip-rule="nonzero"/></clipPath><g clip-path="url(#p.0)"><path fill="#000000" fill-opacity="0.0" d="m0 0l721.8268 0l0 242.11548l-721.8268 0z" fill-rule="evenodd"/><path fill="#93c47d" d="m28.728346 26.569553l37.795273 0l0 37.795277l-37.795273 0z" fill-rule="evenodd"/><path stroke="#000000" stroke-width="1.0" stroke-linejoin="round" stroke-linecap="butt" d="m28.728346 26.569553l37.795273 0l0 37.795277l-37.795273 0z" fill-rule="evenodd"/><path fill="#93c47d" d="m66.52362 26.569553l37.79528 0l0 37.795277l-37.79528 0z" fill-rule="evenodd"/><path stroke="#000000" stroke-width="1.0" stroke-linejoin="round" stroke-linecap="butt" d="m66.52362 26.569553l37.79528 0l0 37.795277l-37.79528 0z" fill-rule="evenodd"/><path fill="#93c47d" d="m104.3189 64.36483l37.795265 0l0 37.795273l-37.795265 0z" fill-rule="evenodd"/><path stroke="#000000" stroke-width="1.0" stroke-linejoin="round" stroke-linecap="butt" d="m104.3189 64.36483l37.795265 0l0 37.795273l-37.795265 0z" fill-rule="evenodd"/><path fill="#93c47d" d="m142.11417 102.1601l37.795288 0l0 37.79528l-37.795288 0z" fill-rule="evenodd"/><path stroke="#000000" stroke-width="1.0" stroke-linejoin="round" stroke-linecap="butt" d="m142.11417 102.1601l37.795288 0l0 37.79528l-37.795288 0z" fill-rule="evenodd"/><path fill="#cccccc" d="m28.728346 102.1601l37.795273 0l0 37.79528l-37.795273 0z" fill-rule="evenodd"/><path stroke="#000000" stroke-width="1.0" stroke-linejoin="round" stroke-linecap="butt" d="m28.728346 102.1601l37.795273 0l0 37.79528l-37.795273 0z" fill-rule="evenodd"/><path fill="#93c47d" d="m104.3189 102.1601l37.795265 0l0 37.79528l-37.795265 0z" fill-rule="evenodd"/><path stroke="#000000" stroke-width="1.0" stroke-linejoin="round" stroke-linecap="butt" d="m104.3189 102.1601l37.795265 0l0 37.79528l-37.795265 0z" fill-rule="evenodd"/><path fill="#93c47d" d="m66.52362 64.36483l37.79528 0l0 37.795273l-37.79528 0z" fill-rule="evenodd"/><path stroke="#000000" stroke-width="1.0" stroke-linejoin="round" stroke-linecap="butt" d="m66.52362 64.36483l37.79528 0l0 37.795273l-37.79528 0z" fill-rule="evenodd"/><path fill="#cccccc" d="m104.3189 139.95538l37.795265 0l0 37.795273l-37.795265 0z" fill-rule="evenodd"/><path stroke="#000000" stroke-width="1.0" stroke-linejoin="round" stroke-linecap="butt" d="m104.3189 139.95538l37.795265 0l0 37.795273l-37.795265 0z" fill-rule="evenodd"/><path fill="#cccccc" d="m142.11417 139.95538l37.795288 0l0 37.795273l-37.795288 0z" fill-rule="evenodd"/><path stroke="#000000" stroke-width="1.0" stroke-linejoin="round" stroke-linecap="butt" d="m142.11417 139.95538l37.795288 0l0 37.795273l-37.795288 0z" fill-rule="evenodd"/><path fill="#cccccc" d="m28.728346 139.95538l37.795273 0l0 37.795273l-37.795273 0z" fill-rule="evenodd"/><path stroke="#000000" stroke-width="1.0" stroke-linejoin="round" stroke-linecap="butt" d="m28.728346 139.95538l37.795273 0l0 37.795273l-37.795273 0z" fill-rule="evenodd"/><path fill="#cccccc" d="m66.52362 139.95538l37.79528 0l0 37.795273l-37.79528 0z" fill-rule="evenodd"/><path stroke="#000000" stroke-width="1.0" stroke-linejoin="round" stroke-linecap="butt" d="m66.52362 139.95538l37.79528 0l0 37.795273l-37.79528 0z" fill-rule="evenodd"/><path fill="#cccccc" d="m104.3189 177.75066l37.795265 0l0 37.795273l-37.795265 0z" fill-rule="evenodd"/><path stroke="#000000" stroke-width="1.0" stroke-linejoin="round" stroke-linecap="butt" d="m104.3189 177.75066l37.795265 0l0 37.795273l-37.795265 0z" fill-rule="evenodd"/><path fill="#cccccc" d="m142.11417 177.75066l37.795288 0l0 37.795273l-37.795288 0z" fill-rule="evenodd"/><path stroke="#000000" stroke-width="1.0" stroke-linejoin="round" stroke-linecap="butt" d="m142.11417 177.75066l37.795288 0l0 37.795273l-37.795288 0z" fill-rule="evenodd"/><path fill="#cccccc" d="m28.728346 177.75066l37.795273 0l0 37.795273l-37.795273 0z" fill-rule="evenodd"/><path stroke="#000000" stroke-width="1.0" stroke-linejoin="round" stroke-linecap="butt" d="m28.728346 177.75066l37.795273 0l0 37.795273l-37.795273 0z" fill-rule="evenodd"/><path fill="#cccccc" d="m66.52362 177.75066l37.79528 0l0 37.795273l-37.79528 0z" fill-rule="evenodd"/><path stroke="#000000" stroke-width="1.0" stroke-linejoin="round" stroke-linecap="butt" d="m66.52362 177.75066l37.79528 0l0 37.795273l-37.79528 0z" fill-rule="evenodd"/><path fill="#93c47d" d="m275.3819 102.1601l37.795258 0l0 37.79528l-37.795258 0z" fill-rule="evenodd"/><path stroke="#000000" stroke-width="1.0" stroke-linejoin="round" stroke-linecap="butt" d="m275.3819 102.1601l37.795258 0l0 37.79528l-37.795258 0z" fill-rule="evenodd"/><path fill="#a4c2f4" d="m313.17715 102.1601l37.795288 0l0 37.79528l-37.795288 0z" fill-rule="evenodd"/><path stroke="#000000" stroke-width="1.0" stroke-linejoin="round" stroke-linecap="butt" d="m313.17715 102.1601l37.795288 0l0 37.79528l-37.795288 0z" fill-rule="evenodd"/><path fill="#93c47d" d="m199.79134 102.1601l37.795273 0l0 37.79528l-37.795273 0z" fill-rule="evenodd"/><path stroke="#000000" stroke-width="1.0" stroke-linejoin="round" stroke-linecap="butt" d="m199.79134 102.1601l37.795273 0l0 37.79528l-37.795273 0z" fill-rule="evenodd"/><path fill="#93c47d" d="m237.58661 102.1601l37.795288 0l0 37.79528l-37.795288 0z" fill-rule="evenodd"/><path stroke="#000000" stroke-width="1.0" stroke-linejoin="round" stroke-linecap="butt" d="m237.58661 102.1601l37.795288 0l0 37.79528l-37.795288 0z" fill-rule="evenodd"/><path fill="#cccccc" d="m275.3819 139.95538l37.795258 0l0 37.795273l-37.795258 0z" fill-rule="evenodd"/><path stroke="#000000" stroke-width="1.0" stroke-linejoin="round" stroke-linecap="butt" d="m275.3819 139.95538l37.795258 0l0 37.795273l-37.795258 0z" fill-rule="evenodd"/><path fill="#cccccc" d="m313.17715 139.95538l37.795288 0l0 37.795273l-37.795288 0z" fill-rule="evenodd"/><path stroke="#000000" stroke-width="1.0" stroke-linejoin="round" stroke-linecap="butt" d="m313.17715 139.95538l37.795288 0l0 37.795273l-37.795288 0z" fill-rule="evenodd"/><path fill="#cccccc" d="m199.79134 139.95538l37.795273 0l0 37.795273l-37.795273 0z" fill-rule="evenodd"/><path stroke="#000000" stroke-width="1.0" stroke-linejoin="round" stroke-linecap="butt" d="m199.79134 139.95538l37.795273 0l0 37.795273l-37.795273 0z" fill-rule="evenodd"/><path fill="#cccccc" d="m237.58661 139.95538l37.795288 0l0 37.795273l-37.795288 0z" fill-rule="evenodd"/><path stroke="#000000" stroke-width="1.0" stroke-linejoin="round" stroke-linecap="butt" d="m237.58661 139.95538l37.795288 0l0 37.795273l-37.795288 0z" fill-rule="evenodd"/><path fill="#cccccc" d="m275.3819 177.75066l37.795258 0l0 37.795273l-37.795258 0z" fill-rule="evenodd"/><path stroke="#000000" stroke-width="1.0" stroke-linejoin="round" stroke-linecap="butt" d="m275.3819 177.75066l37.795258 0l0 37.795273l-37.795258 0z" fill-rule="evenodd"/><path fill="#cccccc" d="m313.17715 177.75066l37.795288 0l0 37.795273l-37.795288 0z" fill-rule="evenodd"/><path stroke="#000000" stroke-width="1.0" stroke-linejoin="round" stroke-linecap="butt" d="m313.17715 177.75066l37.795288 0l0 37.795273l-37.795288 0z" fill-rule="evenodd"/><path fill="#cccccc" d="m199.79134 177.75066l37.795273 0l0 37.795273l-37.795273 0z" fill-rule="evenodd"/><path stroke="#000000" stroke-width="1.0" stroke-linejoin="round" stroke-linecap="butt" d="m199.79134 177.75066l37.795273 0l0 37.795273l-37.795273 0z" fill-rule="evenodd"/><path fill="#cccccc" d="m237.58661 177.75066l37.795288 0l0 37.795273l-37.795288 0z" fill-rule="evenodd"/><path stroke="#000000" stroke-width="1.0" stroke-linejoin="round" stroke-linecap="butt" d="m237.58661 177.75066l37.795288 0l0 37.795273l-37.795288 0z" fill-rule="evenodd"/><path fill="#93c47d" d="m446.4449 102.1601l37.795258 0l0 37.79528l-37.795258 0z" fill-rule="evenodd"/><path stroke="#000000" stroke-width="1.0" stroke-linejoin="round" stroke-linecap="butt" d="m446.4449 102.1601l37.795258 0l0 37.79528l-37.795258 0z" fill-rule="evenodd"/><path fill="#93c47d" d="m484.24014 102.1601l37.79532 0l0 37.79528l-37.79532 0z" fill-rule="evenodd"/><path stroke="#000000" stroke-width="1.0" stroke-linejoin="round" stroke-linecap="butt" d="m484.24014 102.1601l37.79532 0l0 37.79528l-37.79532 0z" fill-rule="evenodd"/><path fill="#a4c2f4" d="m370.85434 102.1601l37.795258 0l0 37.79528l-37.795258 0z" fill-rule="evenodd"/><path stroke="#000000" stroke-width="1.0" stroke-linejoin="round" stroke-linecap="butt" d="m370.85434 102.1601l37.795258 0l0 37.79528l-37.795258 0z" fill-rule="evenodd"/><path fill="#a4c2f4" d="m408.6496 102.1601l37.795288 0l0 37.79528l-37.795288 0z" fill-rule="evenodd"/><path stroke="#000000" stroke-width="1.0" stroke-linejoin="round" stroke-linecap="butt" d="m408.6496 102.1601l37.795288 0l0 37.79528l-37.795288 0z" fill-rule="evenodd"/><path fill="#cccccc" d="m446.4449 139.95538l37.795258 0l0 37.795273l-37.795258 0z" fill-rule="evenodd"/><path stroke="#000000" stroke-width="1.0" stroke-linejoin="round" stroke-linecap="butt" d="m446.4449 139.95538l37.795258 0l0 37.795273l-37.795258 0z" fill-rule="evenodd"/><path fill="#cccccc" d="m484.24014 139.95538l37.79532 0l0 37.795273l-37.79532 0z" fill-rule="evenodd"/><path stroke="#000000" stroke-width="1.0" stroke-linejoin="round" stroke-linecap="butt" d="m484.24014 139.95538l37.79532 0l0 37.795273l-37.79532 0z" fill-rule="evenodd"/><path fill="#cccccc" d="m370.85434 139.95538l37.795258 0l0 37.795273l-37.795258 0z" fill-rule="evenodd"/><path stroke="#000000" stroke-width="1.0" stroke-linejoin="round" stroke-linecap="butt" d="m370.85434 139.95538l37.795258 0l0 37.795273l-37.795258 0z" fill-rule="evenodd"/><path fill="#cccccc" d="m408.6496 139.95538l37.795288 0l0 37.795273l-37.795288 0z" fill-rule="evenodd"/><path stroke="#000000" stroke-width="1.0" stroke-linejoin="round" stroke-linecap="butt" d="m408.6496 139.95538l37.795288 0l0 37.795273l-37.795288 0z" fill-rule="evenodd"/><path fill="#cccccc" d="m446.4449 177.75066l37.795258 0l0 37.795273l-37.795258 0z" fill-rule="evenodd"/><path stroke="#000000" stroke-width="1.0" stroke-linejoin="round" stroke-linecap="butt" d="m446.4449 177.75066l37.795258 0l0 37.795273l-37.795258 0z" fill-rule="evenodd"/><path fill="#cccccc" d="m484.24014 177.75066l37.79532 0l0 37.795273l-37.79532 0z" fill-rule="evenodd"/><path stroke="#000000" stroke-width="1.0" stroke-linejoin="round" stroke-linecap="butt" d="m484.24014 177.75066l37.79532 0l0 37.795273l-37.79532 0z" fill-rule="evenodd"/><path fill="#cccccc" d="m370.85434 177.75066l37.795258 0l0 37.795273l-37.795258 0z" fill-rule="evenodd"/><path stroke="#000000" stroke-width="1.0" stroke-linejoin="round" stroke-linecap="butt" d="m370.85434 177.75066l37.795258 0l0 37.795273l-37.795258 0z" fill-rule="evenodd"/><path fill="#cccccc" d="m408.6496 177.75066l37.795288 0l0 37.795273l-37.795288 0z" fill-rule="evenodd"/><path stroke="#000000" stroke-width="1.0" stroke-linejoin="round" stroke-linecap="butt" d="m408.6496 177.75066l37.795288 0l0 37.795273l-37.795288 0z" fill-rule="evenodd"/><path fill="#cccccc" d="m617.5079 102.1601l37.795288 0l0 37.79528l-37.795288 0z" fill-rule="evenodd"/><path stroke="#000000" stroke-width="1.0" stroke-linejoin="round" stroke-linecap="butt" d="m617.5079 102.1601l37.795288 0l0 37.79528l-37.795288 0z" fill-rule="evenodd"/><path fill="#cccccc" d="m655.30316 102.1601l37.795288 0l0 37.79528l-37.795288 0z" fill-rule="evenodd"/><path stroke="#000000" stroke-width="1.0" stroke-linejoin="round" stroke-linecap="butt" d="m655.30316 102.1601l37.795288 0l0 37.79528l-37.795288 0z" fill-rule="evenodd"/><path fill="#93c47d" d="m541.9173 102.1601l37.795288 0l0 37.79528l-37.795288 0z" fill-rule="evenodd"/><path stroke="#000000" stroke-width="1.0" stroke-linejoin="round" stroke-linecap="butt" d="m541.9173 102.1601l37.795288 0l0 37.79528l-37.795288 0z" fill-rule="evenodd"/><path fill="#93c47d" d="m579.7126 102.1601l37.795288 0l0 37.79528l-37.795288 0z" fill-rule="evenodd"/><path stroke="#000000" stroke-width="1.0" stroke-linejoin="round" stroke-linecap="butt" d="m579.7126 102.1601l37.795288 0l0 37.79528l-37.795288 0z" fill-rule="evenodd"/><path fill="#cccccc" d="m617.5079 139.95538l37.795288 0l0 37.795273l-37.795288 0z" fill-rule="evenodd"/><path stroke="#000000" stroke-width="1.0" stroke-linejoin="round" stroke-linecap="butt" d="m617.5079 139.95538l37.795288 0l0 37.795273l-37.795288 0z" fill-rule="evenodd"/><path fill="#cccccc" d="m655.30316 139.95538l37.795288 0l0 37.795273l-37.795288 0z" fill-rule="evenodd"/><path stroke="#000000" stroke-width="1.0" stroke-linejoin="round" stroke-linecap="butt" d="m655.30316 139.95538l37.795288 0l0 37.795273l-37.795288 0z" fill-rule="evenodd"/><path fill="#cccccc" d="m541.9173 139.95538l37.795288 0l0 37.795273l-37.795288 0z" fill-rule="evenodd"/><path stroke="#000000" stroke-width="1.0" stroke-linejoin="round" stroke-linecap="butt" d="m541.9173 139.95538l37.795288 0l0 37.795273l-37.795288 0z" fill-rule="evenodd"/><path fill="#cccccc" d="m579.7126 139.95538l37.795288 0l0 37.795273l-37.795288 0z" fill-rule="evenodd"/><path stroke="#000000" stroke-width="1.0" stroke-linejoin="round" stroke-linecap="butt" d="m579.7126 139.95538l37.795288 0l0 37.795273l-37.795288 0z" fill-rule="evenodd"/><path fill="#cccccc" d="m617.5079 177.75066l37.795288 0l0 37.795273l-37.795288 0z" fill-rule="evenodd"/><path stroke="#000000" stroke-width="1.0" stroke-linejoin="round" stroke-linecap="butt" d="m617.5079 177.75066l37.795288 0l0 37.795273l-37.795288 0z" fill-rule="evenodd"/><path fill="#cccccc" d="m655.30316 177.75066l37.795288 0l0 37.795273l-37.795288 0z" fill-rule="evenodd"/><path stroke="#000000" stroke-width="1.0" stroke-linejoin="round" stroke-linecap="butt" d="m655.30316 177.75066l37.795288 0l0 37.795273l-37.795288 0z" fill-rule="evenodd"/><path fill="#cccccc" d="m541.9173 177.75066l37.795288 0l0 37.795273l-37.795288 0z" fill-rule="evenodd"/><path stroke="#000000" stroke-width="1.0" stroke-linejoin="round" stroke-linecap="butt" d="m541.9173 177.75066l37.795288 0l0 37.795273l-37.795288 0z" fill-rule="evenodd"/><path fill="#cccccc" d="m579.7126 177.75066l37.795288 0l0 37.795273l-37.795288 0z" fill-rule="evenodd"/><path stroke="#000000" stroke-width="1.0" stroke-linejoin="round" stroke-linecap="butt" d="m579.7126 177.75066l37.795288 0l0 37.795273l-37.795288 0z" fill-rule="evenodd"/><path fill="#93c47d" d="m617.5079 64.36483l37.795288 0l0 37.795273l-37.795288 0z" fill-rule="evenodd"/><path stroke="#000000" stroke-width="1.0" stroke-linejoin="round" stroke-linecap="butt" d="m617.5079 64.36483l37.795288 0l0 37.795273l-37.795288 0z" fill-rule="evenodd"/><path fill="#93c47d" d="m655.30316 64.36483l37.795288 0l0 37.795273l-37.795288 0z" fill-rule="evenodd"/><path stroke="#000000" stroke-width="1.0" stroke-linejoin="round" stroke-linecap="butt" d="m655.30316 64.36483l37.795288 0l0 37.795273l-37.795288 0z" fill-rule="evenodd"/><path fill="#93c47d" d="m579.7126 64.36483l37.795288 0l0 37.795273l-37.795288 0z" fill-rule="evenodd"/><path stroke="#000000" stroke-width="1.0" stroke-linejoin="round" stroke-linecap="butt" d="m579.7126 64.36483l37.795288 0l0 37.795273l-37.795288 0z" fill-rule="evenodd"/><path fill="#cccccc" d="m66.52362 102.1601l37.79528 0l0 37.79528l-37.79528 0z" fill-rule="evenodd"/><path stroke="#000000" stroke-width="1.0" stroke-linejoin="round" stroke-linecap="butt" d="m66.52362 102.1601l37.79528 0l0 37.79528l-37.79528 0z" fill-rule="evenodd"/><path fill="#cccccc" d="m28.728346 64.36483l37.795273 0l0 37.795273l-37.795273 0z" fill-rule="evenodd"/><path stroke="#000000" stroke-width="1.0" stroke-linejoin="round" stroke-linecap="butt" d="m28.728346 64.36483l37.795273 0l0 37.795273l-37.795273 0z" fill-rule="evenodd"/></g></svg>