<svg version="1.1" viewBox="0.0 0.0 334.98162729658793 205.21784776902888" fill="none" stroke="none" stroke-linecap="square" stroke-miterlimit="10" xmlns:xlink="http://www.w3.org/1999/xlink" xmlns="http://www.w3.org/2000/svg"><clipPath id="p.0"><path d="m0 0l334.98163 0l0 205.21785l-334.98163 0l0 -205.21785z" clip-rule="nonzero"/></clipPath><g clip-path="url(#p.0)"><path fill="#000000" fill-opacity="0.0" d="m0 0l334.98163 0l0 205.21785l-334.98163 0z" fill-rule="evenodd"/><path fill="#93c47d" d="m87.17454 31.742783l37.79528 0l0 37.795273l-37.79528 0z" fill-rule="evenodd"/><path stroke="#000000" stroke-width="1.0" stroke-linejoin="round" stroke-linecap="butt" d="m87.17454 31.742783l37.79528 0l0 37.795273l-37.79528 0z" fill-rule="evenodd"/><path fill="#93c47d" d="m49.379265 31.742783l37.795273 0l0 37.795273l-37.795273 0z" fill-rule="evenodd"/><path stroke="#000000" stroke-width="1.0" stroke-linejoin="round" stroke-linecap="butt" d="m49.379265 31.742783l37.795273 0l0 37.795273l-37.795273 0z" fill-rule="evenodd"/><path fill="#93c47d" d="m124.96982 69.538055l37.795273 0l0 37.79528l-37.795273 0z" fill-rule="evenodd"/><path stroke="#000000" stroke-width="1.0" stroke-linejoin="round" stroke-linecap="butt" d="m124.96982 69.538055l37.795273 0l0 37.79528l-37.795273 0z" fill-rule="evenodd"/><path fill="#93c47d" d="m87.17454 69.538055l37.79528 0l0 37.79528l-37.79528 0z" fill-rule="evenodd"/><path stroke="#000000" stroke-width="1.0" stroke-linejoin="round" stroke-linecap="butt" d="m87.17454 69.538055l37.79528 0l0 37.79528l-37.79528 0z" fill-rule="evenodd"/><path fill="#93c47d" d="m124.96982 31.742783l37.795273 0l0 37.795273l-37.795273 0z" fill-rule="evenodd"/><path stroke="#000000" stroke-width="1.0" stroke-linejoin="round" stroke-linecap="butt" d="m124.96982 31.742783l37.795273 0l0 37.795273l-37.795273 0z" fill-rule="evenodd"/><path fill="#93c47d" d="m162.76509 31.742783l37.795273 0l0 37.795273l-37.795273 0z" fill-rule="evenodd"/><path stroke="#000000" stroke-width="1.0" stroke-linejoin="round" stroke-linecap="butt" d="m162.76509 31.742783l37.795273 0l0 37.795273l-37.795273 0z" fill-rule="evenodd"/><path fill="#93c47d" d="m124.96982 107.333336l37.795273 0l0 37.79528l-37.795273 0z" fill-rule="evenodd"/><path stroke="#000000" stroke-width="1.0" stroke-linejoin="round" stroke-linecap="butt" d="m124.96982 107.333336l37.795273 0l0 37.79528l-37.795273 0z" fill-rule="evenodd"/><path fill="#93c47d" d="m87.17454 107.333336l37.79528 0l0 37.79528l-37.79528 0z" fill-rule="evenodd"/><path stroke="#000000" stroke-width="1.0" stroke-linejoin="round" stroke-linecap="butt" d="m87.17454 107.333336l37.79528 0l0 37.79528l-37.79528 0z" fill-rule="evenodd"/><path fill="#93c47d" d="m162.76509 145.12862l37.795273 0l0 37.795273l-37.795273 0z" fill-rule="evenodd"/><path stroke="#000000" stroke-width="1.0" stroke-linejoin="round" stroke-linecap="butt" d="m162.76509 145.12862l37.795273 0l0 37.795273l-37.795273 0z" fill-rule="evenodd"/><path fill="#93c47d" d="m162.76509 107.333336l37.795273 0l0 37.79528l-37.795273 0z" fill-rule="evenodd"/><path stroke="#000000" stroke-width="1.0" stroke-linejoin="round" stroke-linecap="butt" d="m162.76509 107.333336l37.795273 0l0 37.79528l-37.795273 0z" fill-rule="evenodd"/><path fill="#93c47d" d="m49.379265 69.538055l37.795273 0l0 37.79528l-37.795273 0z" fill-rule="evenodd"/><path stroke="#000000" stroke-width="1.0" stroke-linejoin="round" stroke-linecap="butt" d="m49.379265 69.538055l37.795273 0l0 37.79528l-37.795273 0z" fill-rule="evenodd"/><path fill="#93c47d" d="m49.379265 107.333336l37.795273 0l0 37.79528l-37.795273 0z" fill-rule="evenodd"/><path stroke="#000000" stroke-width="1.0" stroke-linejoin="round" stroke-linecap="butt" d="m49.379265 107.333336l37.795273 0l0 37.79528l-37.795273 0z" fill-rule="evenodd"/><path fill="#93c47d" d="m49.383194 145.12862l113.38582 0l0 37.795273l-113.38582 0z" fill-rule="evenodd"/><path stroke="#000000" stroke-width="1.0" stroke-linejoin="round" stroke-linecap="butt" d="m49.383194 145.12862l113.38582 0l0 37.795273l-113.38582 0z" fill-rule="evenodd"/><path fill="#000000" d="m82.24358 165.59062l0 2.90625l2.109375 0q0.21875 0 0.3125 0.078125q0.09375 0.078125 0.09375 0.21875q0 0.140625 -0.09375 0.234375q-0.09375 0.078125 -0.3125 0.078125l-3.5625 0q-0.21875 0 -0.3125 -0.078125q-0.09375 -0.09375 -0.09375 -0.234375q0 -0.140625 0.09375 -0.21875q0.09375 -0.078125 0.3125 -0.078125l0.828125 0l0 -7.34375l-0.828125 0q-0.21875 0 -0.3125 -0.078125q-0.09375 -0.09375 -0.09375 -0.234375q0 -0.140625 0.09375 -0.21875q0.09375 -0.078125 0.3125 -0.078125l3.578125 0q1.265625 0 2.0625 0.75q0.8125 0.734375 0.8125 1.734375q0 0.59375 -0.265625 1.078125q-0.265625 0.46875 -0.625 0.75q-0.546875 0.40625 -1.140625 0.59375q-0.421875 0.140625 -1.046875 0.140625l-1.921875 0zm0 -0.609375l1.953125 0q0.6875 0 1.28125 -0.296875q0.59375 -0.3125 0.859375 -0.75q0.28125 -0.453125 0.28125 -0.90625q0 -0.71875 -0.625 -1.296875q-0.609375 -0.578125 -1.5625 -0.578125l-2.1875 0l0 3.828125zm8.29834 -5.0625l0 3.78125q0.59375 -0.640625 1.125 -0.890625q0.546875 -0.265625 1.21875 -0.265625q0.703125 0 1.203125 0.25q0.515625 0.25 0.84375 0.78125q0.34375 0.515625 0.34375 1.09375l0 3.828125l0.6875 0q0.21875 0 0.3125 0.078125q0.09375 0.078125 0.09375 0.21875q0 0.140625 -0.09375 0.234375q-0.09375 0.078125 -0.3125 0.078125l-2.0 0q-0.234375 0 -0.328125 -0.078125q-0.09375 -0.09375 -0.09375 -0.234375q0 -0.140625 0.09375 -0.21875q0.09375 -0.078125 0.328125 -0.078125l0.6875 0l0 -3.78125q0 -0.65625 -0.484375 -1.109375q-0.46875 -0.453125 -1.328125 -0.453125q-0.671875 0 -1.15625 0.328125q-0.34375 0.234375 -1.140625 1.109375l0 3.90625l0.703125 0q0.21875 0 0.3125 0.078125q0.09375 0.078125 0.09375 0.21875q0 0.140625 -0.09375 0.234375q-0.09375 0.078125 -0.3125 0.078125l-2.0 0q-0.234375 0 -0.328125 -0.078125q-0.09375 -0.09375 -0.09375 -0.234375q0 -0.140625 0.09375 -0.21875q0.09375 -0.078125 0.328125 -0.078125l0.6875 0l0 -7.953125l-0.828125 0q-0.21875 0 -0.3125 -0.09375q-0.09375 -0.09375 -0.09375 -0.234375q0 -0.125 0.09375 -0.203125q0.09375 -0.09375 0.3125 -0.09375l1.4375 0zm11.345215 -0.3125l0 1.59375l-0.921875 0l0 -1.59375l0.921875 0zm0.015625 3.15625l0 5.734375l2.421875 0q0.21875 0 0.3125 0.078125q0.09375 0.078125 0.09375 0.21875q0 0.140625 -0.09375 0.234375q-0.09375 0.078125 -0.3125 0.078125l-5.453125 0q-0.21875 0 -0.3125 -0.078125q-0.09375 -0.09375 -0.09375 -0.234375q0 -0.140625 0.09375 -0.21875q0.09375 -0.078125 0.3125 -0.078125l2.421875 0l0 -5.109375l-1.796875 0q-0.21875 0 -0.328125 -0.078125q-0.09375 -0.09375 -0.09375 -0.234375q0 -0.140625 0.09375 -0.21875q0.09375 -0.09375 0.328125 -0.09375l2.40625 0zm8.98584 -2.84375l0 8.578125l2.421875 0q0.21875763 0 0.31250763 0.078125q0.09375 0.078125 0.09375 0.21875q0 0.140625 -0.09375 0.234375q-0.09375 0.078125 -0.31250763 0.078125l-5.453125 0q-0.21875 0 -0.3125 -0.078125q-0.09375 -0.09375 -0.09375 -0.234375q0 -0.140625 0.09375 -0.21875q0.09375 -0.078125 0.3125 -0.078125l2.421875 0l0 -7.953125l-1.78125 0q-0.21875 0 -0.328125 -0.09375q-0.09375 -0.09375 -0.09375 -0.234375q0 -0.125 0.09375 -0.203125q0.109375 -0.09375 0.328125 -0.09375l2.390625 0zm9.001472 0l0 8.578125l2.421875 0q0.21875 0 0.3125 0.078125q0.09375 0.078125 0.09375 0.21875q0 0.140625 -0.09375 0.234375q-0.09375 0.078125 -0.3125 0.078125l-5.453125 0q-0.21875 0 -0.3125 -0.078125q-0.09375 -0.09375 -0.09375 -0.234375q0 -0.140625 0.09375 -0.21875q0.09375 -0.078125 0.3125 -0.078125l2.421875 0l0 -7.953125l-1.78125 0q-0.21875 0 -0.328125 -0.09375q-0.09375 -0.09375 -0.09375 -0.234375q0 -0.125 0.09375 -0.203125q0.109375 -0.09375 0.328125 -0.09375l2.390625 0zm8.73584 9.1875l-2.859375 -5.71875l-0.1875 0q-0.21875 0 -0.3125 -0.078125q-0.09375 -0.09375 -0.09375 -0.234375q0 -0.09375 0.046875 -0.171875q0.046875 -0.078125 0.125 -0.109375q0.078125 -0.03125 0.234375 -0.03125l1.6875 0q0.21875 0 0.3125 0.09375q0.09375 0.078125 0.09375 0.21875q0 0.140625 -0.09375 0.234375q-0.09375 0.078125 -0.3125 0.078125l-0.828125 0l2.515625 5.046875l2.46875 -5.046875l-0.828125 0q-0.21875 0 -0.3125 -0.078125q-0.09375 -0.09375 -0.09375 -0.234375q0 -0.140625 0.09375 -0.21875q0.09375 -0.09375 0.3125 -0.09375l1.6875 0q0.21875 0 0.3125 0.09375q0.09375 0.078125 0.09375 0.21875q0 0.09375 -0.0625 0.1875q-0.046875 0.078125 -0.125 0.109375q-0.078125 0.015625 -0.40625 0.015625l-3.90625 7.9375l0.96875 0q0.21875 0 0.3125 0.078125q0.09375 0.078125 0.09375 0.21875q0 0.140625 -0.09375 0.21875q-0.09375 0.09375 -0.3125 0.09375l-3.546875 0q-0.21875 0 -0.3125 -0.09375q-0.09375 -0.078125 -0.09375 -0.21875q0 -0.140625 0.09375 -0.21875q0.09375 -0.078125 0.3125 -0.078125l1.921875 0l1.09375 -2.21875z" fill-rule="nonzero"/><path fill="#93c47d" d="m200.56036 31.742783l37.795273 0l0 37.795273l-37.795273 0z" fill-rule="evenodd"/><path stroke="#000000" stroke-width="1.0" stroke-linejoin="round" stroke-linecap="butt" d="m200.56036 31.742783l37.795273 0l0 37.795273l-37.795273 0z" fill-rule="evenodd"/><path fill="#93c47d" d="m200.56036 107.333336l37.795273 0l0 37.79528l-37.795273 0z" fill-rule="evenodd"/><path stroke="#000000" stroke-width="1.0" stroke-linejoin="round" stroke-linecap="butt" d="m200.56036 107.333336l37.795273 0l0 37.79528l-37.795273 0z" fill-rule="evenodd"/><path fill="#93c47d" d="m200.56036 145.12862l37.795273 0l0 37.795273l-37.795273 0z" fill-rule="evenodd"/><path stroke="#000000" stroke-width="1.0" stroke-linejoin="round" stroke-linecap="butt" d="m200.56036 145.12862l37.795273 0l0 37.795273l-37.795273 0z" fill-rule="evenodd"/><path fill="#93c47d" d="m162.7664 69.538055l75.590546 0l0 37.79528l-75.590546 0z" fill-rule="evenodd"/><path stroke="#000000" stroke-width="1.0" stroke-linejoin="round" stroke-linecap="butt" d="m162.7664 69.538055l75.590546 0l0 37.79528l-75.590546 0z" fill-rule="evenodd"/><path fill="#000000" d="m199.07584 93.51569l-0.796875 0l-4.53125 -7.671875l0 7.0625l1.140625 0q0.21875 0 0.3125 0.078125q0.109375 0.078125 0.109375 0.21875q0 0.140625 -0.109375 0.234375q-0.09375 0.078125 -0.3125 0.078125l-2.265625 0q-0.234375 0 -0.328125 -0.078125q-0.09375 -0.09375 -0.09375 -0.234375q0 -0.140625 0.09375 -0.21875q0.09375 -0.078125 0.328125 -0.078125l0.515625 0l0 -7.34375l-0.828125 0q-0.21875 0 -0.3125 -0.078125q-0.09375 -0.09375 -0.09375 -0.234375q0 -0.140625 0.09375 -0.21875q0.09375 -0.078125 0.3125 -0.078125l1.609375 0l4.546875 7.671875l0 -7.0625l-1.140625 0q-0.21875 0 -0.3125 -0.078125q-0.09375 -0.09375 -0.09375 -0.234375q0 -0.140625 0.078125 -0.21875q0.09375 -0.078125 0.328125 -0.078125l2.265625 0q0.21875 0 0.3125 0.078125q0.09375 0.078125 0.09375 0.21875q0 0.140625 -0.09375 0.234375q-0.09375 0.078125 -0.3125 0.078125l-0.515625 0l0 7.953125zm6.313965 -3.875l0 3.265625l1.59375 0q0.21875 0 0.3125 0.078125q0.09375 0.078125 0.09375 0.21875q0 0.140625 -0.09375 0.234375q-0.09375 0.078125 -0.3125 0.078125l-3.8125 0q-0.21875 0 -0.3125 -0.078125q-0.09375 -0.09375 -0.09375 -0.234375q0 -0.140625 0.078125 -0.21875q0.09375 -0.078125 0.328125 -0.078125l1.59375 0l0 -3.265625l-2.703125 -4.078125l-0.359375 0q-0.21875 0 -0.328125 -0.078125q-0.09375 -0.09375 -0.09375 -0.234375q0 -0.140625 0.09375 -0.21875q0.109375 -0.078125 0.328125 -0.078125l1.6875 0q0.21875 0 0.3125 0.078125q0.09375 0.078125 0.09375 0.21875q0 0.140625 -0.09375 0.234375q-0.09375 0.078125 -0.3125 0.078125l-0.609375 0l2.296875 3.46875l2.25 -3.46875l-0.59375 0q-0.234375 0 -0.328125 -0.078125q-0.09375 -0.09375 -0.09375 -0.234375q0 -0.140625 0.09375 -0.21875q0.09375 -0.078125 0.328125 -0.078125l1.6875 0q0.21875 0 0.3125 0.078125q0.09375 0.078125 0.09375 0.21875q0 0.140625 -0.09375 0.234375q-0.09375 0.078125 -0.3125 0.078125l-0.375 0l-2.65625 4.078125z" fill-rule="nonzero"/><path fill="#93c47d" d="m238.35564 107.333336l37.795273 0l0 37.79528l-37.795273 0z" fill-rule="evenodd"/><path stroke="#000000" stroke-width="1.0" stroke-linejoin="round" stroke-linecap="butt" d="m238.35564 107.333336l37.795273 0l0 37.79528l-37.795273 0z" fill-rule="evenodd"/><path fill="#93c47d" d="m238.35564 145.12862l37.795273 0l0 37.795273l-37.795273 0z" fill-rule="evenodd"/><path stroke="#000000" stroke-width="1.0" stroke-linejoin="round" stroke-linecap="butt" d="m238.35564 145.12862l37.795273 0l0 37.795273l-37.795273 0z" fill-rule="evenodd"/><path fill="#93c47d" d="m238.35564 31.742783l37.795273 0l0 37.795273l-37.795273 0z" fill-rule="evenodd"/><path stroke="#000000" stroke-width="1.0" stroke-linejoin="round" stroke-linecap="butt" d="m238.35564 31.742783l37.795273 0l0 37.795273l-37.795273 0z" fill-rule="evenodd"/><path fill="#93c47d" d="m238.35564 69.538055l37.795273 0l0 37.79528l-37.795273 0z" fill-rule="evenodd"/><path stroke="#000000" stroke-width="1.0" stroke-linejoin="round" stroke-linecap="butt" d="m238.35564 69.538055l37.795273 0l0 37.79528l-37.795273 0z" fill-rule="evenodd"/><path fill="#b0a0bc" fill-opacity="0.3073" d="m115.52231 22.293962l170.07874 0l0 132.28346l-170.07874 0z" fill-rule="evenodd"/><path stroke="#000000" stroke-width="1.0" stroke-linejoin="round" stroke-linecap="butt" d="m115.52231 22.293962l170.07874 0l0 132.28346l-170.07874 0z" fill-rule="evenodd"/><path fill="#00ff00" d="m115.52231 145.12862l47.244095 0l0 9.448807l-47.244095 0z" fill-rule="evenodd"/><path stroke="#000000" stroke-width="1.0" stroke-linejoin="round" stroke-linecap="butt" d="m115.52231 145.12862l47.244095 0l0 9.448807l-47.244095 0z" fill-rule="evenodd"/></g></svg>