<svg version="1.1" viewBox="0.0 0.0 721.8267716535433 242.11548556430446" fill="none" stroke="none" stroke-linecap="square" stroke-miterlimit="10" xmlns:xlink="http://www.w3.org/1999/xlink" xmlns="http://www.w3.org/2000/svg"><clipPath id="p.0"><path d="m0 0l721.8268 0l0 242.11548l-721.8268 0l0 -242.11548z" clip-rule="nonzero"/></clipPath><g clip-path="url(#p.0)"><path fill="#000000" fill-opacity="0.0" d="m0 0l721.8268 0l0 242.11548l-721.8268 0z" fill-rule="evenodd"/><path fill="#93c47d" d="m28.727034 111.42519l37.795273 0l0 37.79528l-37.795273 0z" fill-rule="evenodd"/><path stroke="#000000" stroke-width="1.0" stroke-linejoin="round" stroke-linecap="butt" d="m28.727034 111.42519l37.795273 0l0 37.79528l-37.795273 0z" fill-rule="evenodd"/><path fill="#93c47d" d="m66.52231 111.42519l37.79528 0l0 37.79528l-37.79528 0z" fill-rule="evenodd"/><path stroke="#000000" stroke-width="1.0" stroke-linejoin="round" stroke-linecap="butt" d="m66.52231 111.42519l37.79528 0l0 37.79528l-37.79528 0z" fill-rule="evenodd"/><path fill="#93c47d" d="m104.31759 149.22047l37.795265 0l0 37.795273l-37.795265 0z" fill-rule="evenodd"/><path stroke="#000000" stroke-width="1.0" stroke-linejoin="round" stroke-linecap="butt" d="m104.31759 149.22047l37.795265 0l0 37.795273l-37.795265 0z" fill-rule="evenodd"/><path fill="#93c47d" d="m142.11285 187.01575l37.795288 0l0 37.795273l-37.795288 0z" fill-rule="evenodd"/><path stroke="#000000" stroke-width="1.0" stroke-linejoin="round" stroke-linecap="butt" d="m142.11285 187.01575l37.795288 0l0 37.795273l-37.795288 0z" fill-rule="evenodd"/><path fill="#cccccc" d="m28.727034 187.01575l37.795273 0l0 37.795273l-37.795273 0z" fill-rule="evenodd"/><path stroke="#000000" stroke-width="1.0" stroke-linejoin="round" stroke-linecap="butt" d="m28.727034 187.01575l37.795273 0l0 37.795273l-37.795273 0z" fill-rule="evenodd"/><path fill="#93c47d" d="m104.31759 187.01575l37.795265 0l0 37.795273l-37.795265 0z" fill-rule="evenodd"/><path stroke="#000000" stroke-width="1.0" stroke-linejoin="round" stroke-linecap="butt" d="m104.31759 187.01575l37.795265 0l0 37.795273l-37.795265 0z" fill-rule="evenodd"/><path fill="#93c47d" d="m66.52231 149.22047l37.79528 0l0 37.795273l-37.79528 0z" fill-rule="evenodd"/><path stroke="#000000" stroke-width="1.0" stroke-linejoin="round" stroke-linecap="butt" d="m66.52231 149.22047l37.79528 0l0 37.795273l-37.79528 0z" fill-rule="evenodd"/><path fill="#93c47d" d="m275.38058 187.01575l37.795258 0l0 37.795273l-37.795258 0z" fill-rule="evenodd"/><path stroke="#000000" stroke-width="1.0" stroke-linejoin="round" stroke-linecap="butt" d="m275.38058 187.01575l37.795258 0l0 37.795273l-37.795258 0z" fill-rule="evenodd"/><path fill="#a4c2f4" d="m313.17584 187.01575l37.795288 0l0 37.795273l-37.795288 0z" fill-rule="evenodd"/><path stroke="#000000" stroke-width="1.0" stroke-linejoin="round" stroke-linecap="butt" d="m313.17584 187.01575l37.795288 0l0 37.795273l-37.795288 0z" fill-rule="evenodd"/><path fill="#93c47d" d="m199.79002 187.01575l37.795273 0l0 37.795273l-37.795273 0z" fill-rule="evenodd"/><path stroke="#000000" stroke-width="1.0" stroke-linejoin="round" stroke-linecap="butt" d="m199.79002 187.01575l37.795273 0l0 37.795273l-37.795273 0z" fill-rule="evenodd"/><path fill="#93c47d" d="m237.5853 187.01575l37.795288 0l0 37.795273l-37.795288 0z" fill-rule="evenodd"/><path stroke="#000000" stroke-width="1.0" stroke-linejoin="round" stroke-linecap="butt" d="m237.5853 187.01575l37.795288 0l0 37.795273l-37.795288 0z" fill-rule="evenodd"/><path fill="#93c47d" d="m446.44357 187.01575l37.795258 0l0 37.795273l-37.795258 0z" fill-rule="evenodd"/><path stroke="#000000" stroke-width="1.0" stroke-linejoin="round" stroke-linecap="butt" d="m446.44357 187.01575l37.795258 0l0 37.795273l-37.795258 0z" fill-rule="evenodd"/><path fill="#93c47d" d="m484.23883 187.01575l37.795288 0l0 37.795273l-37.795288 0z" fill-rule="evenodd"/><path stroke="#000000" stroke-width="1.0" stroke-linejoin="round" stroke-linecap="butt" d="m484.23883 187.01575l37.795288 0l0 37.795273l-37.795288 0z" fill-rule="evenodd"/><path fill="#a4c2f4" d="m370.85303 187.01575l37.795258 0l0 37.795273l-37.795258 0z" fill-rule="evenodd"/><path stroke="#000000" stroke-width="1.0" stroke-linejoin="round" stroke-linecap="butt" d="m370.85303 187.01575l37.795258 0l0 37.795273l-37.795258 0z" fill-rule="evenodd"/><path fill="#a4c2f4" d="m408.6483 187.01575l37.795288 0l0 37.795273l-37.795288 0z" fill-rule="evenodd"/><path stroke="#000000" stroke-width="1.0" stroke-linejoin="round" stroke-linecap="butt" d="m408.6483 187.01575l37.795288 0l0 37.795273l-37.795288 0z" fill-rule="evenodd"/><path fill="#cccccc" d="m617.5066 187.01575l37.795227 0l0 37.795273l-37.795227 0z" fill-rule="evenodd"/><path stroke="#000000" stroke-width="1.0" stroke-linejoin="round" stroke-linecap="butt" d="m617.5066 187.01575l37.795227 0l0 37.795273l-37.795227 0z" fill-rule="evenodd"/><path fill="#cccccc" d="m655.3018 187.01575l37.795288 0l0 37.795273l-37.795288 0z" fill-rule="evenodd"/><path stroke="#000000" stroke-width="1.0" stroke-linejoin="round" stroke-linecap="butt" d="m655.3018 187.01575l37.795288 0l0 37.795273l-37.795288 0z" fill-rule="evenodd"/><path fill="#93c47d" d="m541.916 187.01575l37.795288 0l0 37.795273l-37.795288 0z" fill-rule="evenodd"/><path stroke="#000000" stroke-width="1.0" stroke-linejoin="round" stroke-linecap="butt" d="m541.916 187.01575l37.795288 0l0 37.795273l-37.795288 0z" fill-rule="evenodd"/><path fill="#93c47d" d="m579.7113 187.01575l37.795288 0l0 37.795273l-37.795288 0z" fill-rule="evenodd"/><path stroke="#000000" stroke-width="1.0" stroke-linejoin="round" stroke-linecap="butt" d="m579.7113 187.01575l37.795288 0l0 37.795273l-37.795288 0z" fill-rule="evenodd"/><path fill="#93c47d" d="m617.5066 149.22047l37.795227 0l0 37.795273l-37.795227 0z" fill-rule="evenodd"/><path stroke="#000000" stroke-width="1.0" stroke-linejoin="round" stroke-linecap="butt" d="m617.5066 149.22047l37.795227 0l0 37.795273l-37.795227 0z" fill-rule="evenodd"/><path fill="#93c47d" d="m655.3018 149.22047l37.795288 0l0 37.795273l-37.795288 0z" fill-rule="evenodd"/><path stroke="#000000" stroke-width="1.0" stroke-linejoin="round" stroke-linecap="butt" d="m655.3018 149.22047l37.795288 0l0 37.795273l-37.795288 0z" fill-rule="evenodd"/><path fill="#93c47d" d="m579.7113 149.22047l37.795288 0l0 37.795273l-37.795288 0z" fill-rule="evenodd"/><path stroke="#000000" stroke-width="1.0" stroke-linejoin="round" stroke-linecap="butt" d="m579.7113 149.22047l37.795288 0l0 37.795273l-37.795288 0z" fill-rule="evenodd"/><path fill="#cccccc" d="m66.52231 187.01575l37.79528 0l0 37.795273l-37.79528 0z" fill-rule="evenodd"/><path stroke="#000000" stroke-width="1.0" stroke-linejoin="round" stroke-linecap="butt" d="m66.52231 187.01575l37.79528 0l0 37.795273l-37.79528 0z" fill-rule="evenodd"/><path fill="#cccccc" d="m28.727034 149.22047l37.795273 0l0 37.795273l-37.795273 0z" fill-rule="evenodd"/><path stroke="#000000" stroke-width="1.0" stroke-linejoin="round" stroke-linecap="butt" d="m28.727034 149.22047l37.795273 0l0 37.795273l-37.795273 0z" fill-rule="evenodd"/><path fill="#dd7e6b" d="m199.79002 149.22047l37.795273 0l0 37.795273l-37.795273 0z" fill-rule="evenodd"/><path stroke="#000000" stroke-width="1.0" stroke-linejoin="round" stroke-linecap="butt" d="m199.79002 149.22047l37.795273 0l0 37.795273l-37.795273 0z" fill-rule="evenodd"/><path fill="#dd7e6b" d="m199.79002 111.42519l37.795273 0l0 37.79528l-37.795273 0z" fill-rule="evenodd"/><path stroke="#000000" stroke-width="1.0" stroke-linejoin="round" stroke-linecap="butt" d="m199.79002 111.42519l37.795273 0l0 37.79528l-37.795273 0z" fill-rule="evenodd"/><path fill="#38761d" d="m199.79002 73.62992l37.795273 0l0 37.795273l-37.795273 0z" fill-rule="evenodd"/><path stroke="#000000" stroke-width="1.0" stroke-linejoin="round" stroke-linecap="butt" d="m199.79002 73.62992l37.795273 0l0 37.795273l-37.795273 0z" fill-rule="evenodd"/><path fill="#38761d" d="m199.79002 35.834644l37.795273 0l0 37.795277l-37.795273 0z" fill-rule="evenodd"/><path stroke="#000000" stroke-width="1.0" stroke-linejoin="round" stroke-linecap="butt" d="m199.79002 35.834644l37.795273 0l0 37.795277l-37.795273 0z" fill-rule="evenodd"/><path fill="#ffffff" d="m142.11285 73.62992l37.795288 0l0 37.795273l-37.795288 0z" fill-rule="evenodd"/><path stroke="#000000" stroke-width="1.0" stroke-linejoin="round" stroke-linecap="butt" d="m142.11285 73.62992l37.795288 0l0 37.795273l-37.795288 0z" fill-rule="evenodd"/><path fill="#000000" d="m164.2881 90.61943q0 1.484375 -0.828125 2.25q-0.8125 0.75 -2.375 0.84375l-0.078125 2.25l-1.359375 0l-0.109375 -3.5l1.0625 0q0.5625 0 0.921875 -0.109375q0.375 -0.125 0.609375 -0.34375q0.234375 -0.21875 0.328125 -0.53125q0.09375 -0.3125 0.09375 -0.703125q0 -0.671875 -0.28125 -1.1875q-0.265625 -0.515625 -0.765625 -0.875q-0.484375 -0.359375 -1.15625 -0.53125q-0.671875 -0.1875 -1.484375 -0.1875l-0.21875 0l0 -1.421875l0.234375 0q0.921875 0 1.6875 0.171875q0.765625 0.171875 1.359375 0.46875q0.59375 0.296875 1.03125 0.703125q0.453125 0.40625 0.734375 0.859375q0.296875 0.4375 0.4375 0.921875q0.15625 0.46875 0.15625 0.921875zm-3.96875 6.59375q0.25 0 0.46875 0.09375q0.21875 0.09375 0.375 0.265625q0.171875 0.15625 0.25 0.375q0.09375 0.21875 0.09375 0.46875q0 0.25 -0.09375 0.46875q-0.078125 0.21875 -0.25 0.375q-0.15625 0.15625 -0.375 0.25q-0.21875 0.09375 -0.46875 0.09375q-0.25 0 -0.46875 -0.09375q-0.21875 -0.09375 -0.390625 -0.25q-0.15625 -0.15625 -0.25 -0.375q-0.078125 -0.21875 -0.078125 -0.46875q0 -0.25 0.078125 -0.46875q0.09375 -0.21875 0.25 -0.375q0.171875 -0.171875 0.390625 -0.265625q0.21875 -0.09375 0.46875 -0.09375z" fill-rule="nonzero"/><path fill="#38761d" d="m237.5853 73.62992l37.795288 0l0 37.795273l-37.795288 0z" fill-rule="evenodd"/><path stroke="#000000" stroke-width="1.0" stroke-linejoin="round" stroke-linecap="butt" d="m237.5853 73.62992l37.795288 0l0 37.795273l-37.795288 0z" fill-rule="evenodd"/><path fill="#38761d" d="m237.5853 35.834644l37.795288 0l0 37.795277l-37.795288 0z" fill-rule="evenodd"/><path stroke="#000000" stroke-width="1.0" stroke-linejoin="round" stroke-linecap="butt" d="m237.5853 35.834644l37.795288 0l0 37.795277l-37.795288 0z" fill-rule="evenodd"/><path fill="#dd7e6b" d="m446.44357 149.22047l37.795258 0l0 37.795273l-37.795258 0z" fill-rule="evenodd"/><path stroke="#000000" stroke-width="1.0" stroke-linejoin="round" stroke-linecap="butt" d="m446.44357 149.22047l37.795258 0l0 37.795273l-37.795258 0z" fill-rule="evenodd"/><path fill="#dd7e6b" d="m446.44357 111.42519l37.795258 0l0 37.79528l-37.795258 0z" fill-rule="evenodd"/><path stroke="#000000" stroke-width="1.0" stroke-linejoin="round" stroke-linecap="butt" d="m446.44357 111.42519l37.795258 0l0 37.79528l-37.795258 0z" fill-rule="evenodd"/><path fill="#38761d" d="m446.44357 73.62992l37.795258 0l0 37.795273l-37.795258 0z" fill-rule="evenodd"/><path stroke="#000000" stroke-width="1.0" stroke-linejoin="round" stroke-linecap="butt" d="m446.44357 73.62992l37.795258 0l0 37.795273l-37.795258 0z" fill-rule="evenodd"/><path fill="#38761d" d="m408.6483 73.62992l37.795288 0l0 37.795273l-37.795288 0z" fill-rule="evenodd"/><path stroke="#000000" stroke-width="1.0" stroke-linejoin="round" stroke-linecap="butt" d="m408.6483 73.62992l37.795288 0l0 37.795273l-37.795288 0z" fill-rule="evenodd"/><path fill="#38761d" d="m408.6483 35.834644l37.795288 0l0 37.795277l-37.795288 0z" fill-rule="evenodd"/><path stroke="#000000" stroke-width="1.0" stroke-linejoin="round" stroke-linecap="butt" d="m408.6483 35.834644l37.795288 0l0 37.795277l-37.795288 0z" fill-rule="evenodd"/><path fill="#38761d" d="m446.44357 35.834644l37.795258 0l0 37.795277l-37.795258 0z" fill-rule="evenodd"/><path stroke="#000000" stroke-width="1.0" stroke-linejoin="round" stroke-linecap="butt" d="m446.44357 35.834644l37.795258 0l0 37.795277l-37.795258 0z" fill-rule="evenodd"/><path fill="#38761d" d="m484.23883 73.62992l37.795288 0l0 37.795273l-37.795288 0z" fill-rule="evenodd"/><path stroke="#000000" stroke-width="1.0" stroke-linejoin="round" stroke-linecap="butt" d="m484.23883 73.62992l37.795288 0l0 37.795273l-37.795288 0z" fill-rule="evenodd"/><path fill="#38761d" d="m484.23883 35.834644l37.795288 0l0 37.795277l-37.795288 0z" fill-rule="evenodd"/><path stroke="#000000" stroke-width="1.0" stroke-linejoin="round" stroke-linecap="butt" d="m484.23883 35.834644l37.795288 0l0 37.795277l-37.795288 0z" fill-rule="evenodd"/><path fill="#ffffff" d="m142.11285 35.834644l37.795288 0l0 37.795277l-37.795288 0z" fill-rule="evenodd"/><path stroke="#000000" stroke-width="1.0" stroke-linejoin="round" stroke-linecap="butt" d="m142.11285 35.834644l37.795288 0l0 37.795277l-37.795288 0z" fill-rule="evenodd"/><path fill="#000000" d="m164.2881 52.824158q0 1.484375 -0.828125 2.25q-0.8125 0.75 -2.375 0.84375l-0.078125 2.25l-1.359375 0l-0.109375 -3.5l1.0625 0q0.5625 0 0.921875 -0.109375q0.375 -0.125 0.609375 -0.34375q0.234375 -0.21875 0.328125 -0.53125q0.09375 -0.3125 0.09375 -0.703125q0 -0.671875 -0.28125 -1.1875q-0.265625 -0.515625 -0.765625 -0.875q-0.484375 -0.359375 -1.15625 -0.53125q-0.671875 -0.1875 -1.484375 -0.1875l-0.21875 0l0 -1.421875l0.234375 0q0.921875 0 1.6875 0.171875q0.765625 0.171875 1.359375 0.46875q0.59375 0.296875 1.03125 0.703125q0.453125 0.40625 0.734375 0.859375q0.296875 0.4375 0.4375 0.921875q0.15625 0.46875 0.15625 0.921875zm-3.96875 6.59375q0.25 0 0.46875 0.09375q0.21875 0.09375 0.375 0.265625q0.171875 0.15625 0.25 0.375q0.09375 0.21875 0.09375 0.46875q0 0.25 -0.09375 0.46875q-0.078125 0.21875 -0.25 0.375q-0.15625 0.15625 -0.375 0.25q-0.21875 0.09375 -0.46875 0.09375q-0.25 0 -0.46875 -0.09375q-0.21875 -0.09375 -0.390625 -0.25q-0.15625 -0.15625 -0.25 -0.375q-0.078125 -0.21875 -0.078125 -0.46875q0 -0.25 0.078125 -0.46875q0.09375 -0.21875 0.25 -0.375q0.171875 -0.171875 0.390625 -0.265625q0.21875 -0.09375 0.46875 -0.09375z" fill-rule="nonzero"/></g></svg>